<?xml version="1.0" encoding="UTF-8" standalone="no"?>
<!-- Generator: Adobe Illustrator 16.0.0, SVG Export Plug-In . SVG Version: 6.00 Build 0)  -->

<svg
   xmlns:dc="http://purl.org/dc/elements/1.1/"
   xmlns:cc="http://creativecommons.org/ns#"
   xmlns:rdf="http://www.w3.org/1999/02/22-rdf-syntax-ns#"
   xmlns:svg="http://www.w3.org/2000/svg"
   xmlns="http://www.w3.org/2000/svg"
   xmlns:sodipodi="http://sodipodi.sourceforge.net/DTD/sodipodi-0.dtd"
   xmlns:inkscape="http://www.inkscape.org/namespaces/inkscape"
   version="1.1"
   id="Layer_1"
   sodipodi:docname="koncept-logo.svg"
   inkscape:version="0.48.2 r9819"
   x="0px"
   y="0px"
   width="187.34799"
   height="35.338001"
   viewBox="0 0 187.34799 35.338002"
   enable-background="new 0 0 204.445 49.14"
   xml:space="preserve"><metadata
   id="metadata3074"><rdf:RDF><cc:Work
       rdf:about=""><dc:format>image/svg+xml</dc:format><dc:type
         rdf:resource="http://purl.org/dc/dcmitype/StillImage" /></cc:Work></rdf:RDF></metadata><defs
   id="defs3072" />
<sodipodi:namedview
   inkscape:current-layer="Layer_1"
   inkscape:window-maximized="0"
   inkscape:window-y="0"
   inkscape:window-x="0"
   inkscape:window-height="1037"
   inkscape:window-width="1907"
   inkscape:pageshadow="2"
   inkscape:pageopacity="0"
   inkscape:cy="-1.7145302"
   inkscape:cx="87.631344"
   inkscape:zoom="6.5487162"
   showgrid="false"
   guidetolerance="10"
   gridtolerance="10"
   objecttolerance="10"
   bordercolor="#666666"
   pagecolor="#ffffff"
   borderopacity="1"
   id="namedview3075"
   fit-margin-top="0"
   fit-margin-left="0"
   fit-margin-right="0"
   fit-margin-bottom="0">
	</sodipodi:namedview>
<g
   id="g3053"
   transform="translate(-337.605,-287.105)">
	<g
   id="g3055">
		<path
   id="path3057"
   inkscape:connector-curvature="0"
   d="m 338.342,287.646 v 34.309 h -0.737 v -34.309 h 0.737 z m 1.129,16.735 17.914,-16.736 h 0.981 l -18.208,17.08 19.043,17.229 h -1.13 l -18.602,-16.785 0.002,-0.788 0,0 z"
   style="fill:#d6d6d5" />
		<path
   id="path3059"
   inkscape:connector-curvature="0"
   d="m 363.276,292.308 c 3.143,-3.239 7.559,-5.203 12.369,-5.203 4.858,0 9.228,1.963 12.417,5.203 3.142,3.19 5.153,7.608 5.153,12.467 0,4.859 -2.013,9.276 -5.153,12.468 -3.19,3.237 -7.559,5.2 -12.417,5.2 -4.811,0 -9.227,-1.963 -12.369,-5.2 -3.142,-3.191 -5.152,-7.609 -5.152,-12.468 0,-4.859 2.01,-9.276 5.152,-12.467 z m 24.246,0.589 c -3.043,-3.092 -7.264,-5.006 -11.877,-5.006 -4.614,0 -8.786,1.914 -11.829,5.006 -2.994,3.043 -4.907,7.214 -4.907,11.877 0,4.663 1.914,8.834 4.907,11.877 3.042,3.093 7.214,5.007 11.829,5.007 4.613,0 8.834,-1.914 11.877,-5.007 2.994,-3.043 4.858,-7.215 4.858,-11.877 0,-4.662 -1.864,-8.834 -4.858,-11.877 z"
   style="fill:#d6d6d5" />
		<path
   id="path3061"
   inkscape:connector-curvature="0"
   d="m 396.798,321.953 v -34.406 l 0.688,0.049 22.822,32.982 v -32.982 h 0.736 v 34.357 h -0.786 l -22.675,-32.786 v 32.786 h -0.785 l 0,0 z"
   style="fill:#d6d6d5" />
		<path
   id="path3063"
   inkscape:connector-curvature="0"
   d="m 454.52,298.1 c -0.785,-1.815 -1.914,-3.436 -3.24,-4.811 -2.895,-2.994 -6.92,-4.811 -11.337,-4.811 -4.417,0 -8.441,1.816 -11.338,4.811 -2.896,2.995 -4.711,7.067 -4.711,11.535 0,4.515 1.816,8.59 4.711,11.532 2.896,2.994 6.921,4.859 11.338,4.859 4.417,0 8.442,-1.865 11.337,-4.859 1.326,-1.373 2.455,-2.942 3.24,-4.761 h 0.834 c -0.834,2.013 -2.061,3.828 -3.533,5.351 -3.044,3.142 -7.215,5.056 -11.878,5.056 -4.663,0 -8.834,-1.914 -11.878,-5.056 -2.994,-3.092 -4.906,-7.36 -4.906,-12.122 0,-4.712 1.913,-8.982 4.906,-12.074 3.043,-3.142 7.215,-5.055 11.878,-5.055 4.663,0 8.834,1.913 11.878,5.055 1.474,1.521 2.699,3.337 3.533,5.35 h -0.834 z"
   style="fill:#d6d6d5" />
		<path
   id="path3065"
   inkscape:connector-curvature="0"
   d="m 459.87,321.217 h 18.259 v 0.736 h -18.945 -0.099 v -34.309 h 18.943 v 0.736 H 459.87 v 16 h 17.768 v 0.787 H 459.87 v 16.05 z"
   style="fill:#d6d6d5" />
		<path
   id="path3067"
   inkscape:connector-curvature="0"
   d="m 481.712,287.596 h 0.394 11.483 c 13.743,0 13.743,21.301 0,21.301 h -11.092 v 13.057 h -0.785 c 0,-11.338 0,-22.626 0,-33.964 v -0.394 z m 11.877,20.566 c 12.761,0 12.761,-19.78 0,-19.78 h -11.092 v 19.78 h 11.092 z"
   style="fill:#d6d6d5" />
		<path
   id="path3069"
   inkscape:connector-curvature="0"
   d="m 512.34,321.953 v -33.571 h -11.879 v -0.786 h 24.492 v 0.786 h -11.877 v 33.571 h -0.736 z"
   style="fill:#d6d6d5" />
	</g>
	
		<circle
   id="circle3071"
   sodipodi:ry="3.619"
   sodipodi:rx="3.619"
   sodipodi:cy="298.71701"
   sodipodi:cx="375.827"
   cx="375.827"
   cy="298.71701"
   r="3.619"
   d="m 379.446,298.71701 c 0,1.99872 -1.62029,3.619 -3.619,3.619 -1.99872,0 -3.619,-1.62028 -3.619,-3.619 0,-1.99872 1.62028,-3.619 3.619,-3.619 1.99871,0 3.619,1.62028 3.619,3.619 z"
   style="fill:#2c909c">
	</circle>
	
		<circle
   id="circle3073"
   sodipodi:ry="3.619"
   sodipodi:rx="3.619"
   sodipodi:cy="311.021"
   sodipodi:cx="375.827"
   cx="375.827"
   cy="311.021"
   r="3.619"
   d="m 379.446,311.021 c 0,1.99871 -1.62029,3.619 -3.619,3.619 -1.99872,0 -3.619,-1.62029 -3.619,-3.619 0,-1.99872 1.62028,-3.619 3.619,-3.619 1.99871,0 3.619,1.62028 3.619,3.619 z"
   style="fill:#cb1c68">
	</circle>
</g>
</svg>